<svg id="a4c03752-0d82-4bbe-89c9-ec8197e32706" data-name="Layer 1" xmlns="http://www.w3.org/2000/svg" xmlns:xlink="http://www.w3.org/1999/xlink" viewBox="0 0 345 367">
  <g>
    <path d="M342,169.5C342,82,266.11,11,172.5,11S3,82,3,169.5,78.89,328,172.5,328,342,257,342,169.5" fill="none" stroke="#fd695e" stroke-miterlimit="10" stroke-width="6"/>
    <ellipse cx="172.72" cy="170" rx="151.85" ry="142" fill="#f8d2bf"/>
    <line x1="154" y1="42" x2="156" y2="96" fill="none"/>
    <g>
      <path d="M51.5,214c0,1.1-.68,2-1.5,2s-1.5-.9-1.5-2V135c0-1.1.68-2,1.5-2s1.5.9,1.5,2Z" fill="#fff"/>
      <path d="M84,253c0,1.1-.68,2-1.5,2s-1.5-.9-1.5-2V87c0-1.1.68-2,1.5-2s1.5.9,1.5,2Z" fill="#fff"/>
      <path d="M118.5,285c0,1.1-.68,2-1.5,2s-1.5-.9-1.5-2V60c0-1.1.68-2,1.5-2s1.5.9,1.5,2Z" fill="#fff"/>
      <path d="M153.5,273c0,1.1-.68,2-1.5,2s-1.5-.9-1.5-2V48c0-1.1.68-2,1.5-2s1.5.9,1.5,2Z" fill="#fff"/>
      <path d="M194.5,273c0,1.1-.68,2-1.5,2s-1.5-.9-1.5-2V48c0-1.1.68-2,1.5-2s1.5.9,1.5,2Z" fill="#fff"/>
      <path d="M230.5,282c0,1.1-.68,2-1.5,2s-1.5-.9-1.5-2V57c0-1.1.68-2,1.5-2s1.5.9,1.5,2Z" fill="#fff"/>
      <path d="M266,253c0,1.1-.68,2-1.5,2s-1.5-.9-1.5-2V87c0-1.1.68-2,1.5-2s1.5.9,1.5,2Z" fill="#fff"/>
      <path d="M297.5,215c0,1.1-.68,2-1.5,2s-1.5-.9-1.5-2V136c0-1.1.68-2,1.5-2s1.5.9,1.5,2Z" fill="#fff"/>
    </g>
    <g>
      <g>
        <circle cx="173.5" cy="294.5" r="41.5" fill="#fff"/>
        <circle cx="173.5" cy="294.5" r="41.5" fill="none" stroke="#fd695e" stroke-miterlimit="10" stroke-width="6"/>
      </g>
      <g>
        <path d="M194.93,354a10.77,10.77,0,0,1-10.59,10H161.53a10.61,10.61,0,0,1-10.47-10L139.47,109c-.26-5.5,2.51-13.36,6.16-17.48,0,0,14.08-15.92,29.91-15.51,15.11.39,28,15.4,28,15.4,3.57,4.18,6.23,12.09,5.91,17.58Z" fill="#fff"/>
        <path d="M194.93,354a10.77,10.77,0,0,1-10.59,10H161.53a10.61,10.61,0,0,1-10.47-10L139.47,109c-.26-5.5,2.51-13.36,6.16-17.48,0,0,14.08-15.92,29.91-15.51,15.11.39,28,15.4,28,15.4,3.57,4.18,6.23,12.09,5.91,17.58Z" fill="none" stroke="#fd695e" stroke-miterlimit="10" stroke-width="6"/>
      </g>
      <g>
        <circle cx="173.5" cy="294.5" r="21.5" fill="#fd695e"/>
        <circle cx="173.5" cy="294.5" r="21.5" fill="none" stroke="#fd695e" stroke-miterlimit="10" stroke-width="3"/>
      </g>
      <rect x="120" y="171" width="106" height="97" rx="10" fill="none" stroke="#4d4d4d" stroke-miterlimit="10" stroke-width="8"/>
    </g>
    <image width="808" height="926" transform="translate(123.59 160.3) scale(0.12)" xlink:href="../images%20(5)/images/elhefe.png"/>
    <path d="M226.5,264.1a10.16,10.16,0,0,1-10,10.11l-87,1a9.9,9.9,0,0,1-10-9.89V168.5a10.16,10.16,0,0,1,10-10.11l87-1a9.9,9.9,0,0,1,10,9.89Z" fill="none" stroke="#fd695e" stroke-miterlimit="10" stroke-width="9"/>
    <path d="M183.65,87.35c-.42-.81-2.08-1.78-3.69-2.14,0,0-8.24-1.86-17.61,3.42a26.81,26.81,0,0,0-11.15,11.51c-.64,1.52-.81,3.43-.39,4.24s2.18,1.78,3,.33A30.75,30.75,0,0,1,166,93.5c2.4-1.25,16.21-2.85,16.21-2.85C183.85,90.46,184.08,88.16,183.65,87.35Z" fill="#fd695e"/>
  </g>
</svg>
