<svg id="b742f01c-f372-47b1-9c53-4afe2eca0662" data-name="Layer 1" xmlns="http://www.w3.org/2000/svg" xmlns:xlink="http://www.w3.org/1999/xlink" viewBox="0 0 351 372">
  <g>
    <path d="M345,168.5C345,81,269.11,10,175.5,10S6,81,6,168.5,81.89,327,175.5,327,345,256,345,168.5" fill="none" stroke="#fd695e" stroke-miterlimit="10" stroke-width="6"/>
    <ellipse cx="175.72" cy="169" rx="151.85" ry="142" fill="#f8d2bf"/>
    <line x1="157" y1="41" x2="159" y2="95" fill="none"/>
    <g>
      <path d="M54.5,213c0,1.1-.68,2-1.5,2s-1.5-.9-1.5-2V134c0-1.1.68-2,1.5-2s1.5.9,1.5,2Z" fill="#fff"/>
      <path d="M87,252c0,1.1-.68,2-1.5,2s-1.5-.9-1.5-2V86c0-1.1.68-2,1.5-2s1.5.9,1.5,2Z" fill="#fff"/>
      <path d="M121.5,284c0,1.1-.68,2-1.5,2s-1.5-.9-1.5-2V59c0-1.1.68-2,1.5-2s1.5.9,1.5,2Z" fill="#fff"/>
      <path d="M156.5,272c0,1.1-.68,2-1.5,2s-1.5-.9-1.5-2V47c0-1.1.68-2,1.5-2s1.5.9,1.5,2Z" fill="#fff"/>
      <path d="M197.5,272c0,1.1-.68,2-1.5,2s-1.5-.9-1.5-2V47c0-1.1.68-2,1.5-2s1.5.9,1.5,2Z" fill="#fff"/>
      <path d="M233.5,281c0,1.1-.68,2-1.5,2s-1.5-.9-1.5-2V56c0-1.1.68-2,1.5-2s1.5.9,1.5,2Z" fill="#fff"/>
      <path d="M269,252c0,1.1-.68,2-1.5,2s-1.5-.9-1.5-2V86c0-1.1.68-2,1.5-2s1.5.9,1.5,2Z" fill="#fff"/>
      <path d="M300.5,214c0,1.1-.68,2-1.5,2s-1.5-.9-1.5-2V135c0-1.1.68-2,1.5-2s1.5.9,1.5,2Z" fill="#fff"/>
    </g>
    <g>
      <g>
        <circle cx="176.5" cy="293.5" r="41.5" fill="#fff"/>
        <circle cx="176.5" cy="293.5" r="41.5" fill="none" stroke="#fd695e" stroke-miterlimit="10" stroke-width="6"/>
      </g>
      <g>
        <path d="M197.93,353a10.77,10.77,0,0,1-10.59,10H164.53a10.61,10.61,0,0,1-10.47-10L142.47,108c-.26-5.5,2.51-13.36,6.16-17.48,0,0,14.08-15.92,29.91-15.51,15.11.39,28,15.4,28,15.4,3.57,4.18,6.23,12.09,5.91,17.58Z" fill="#fff"/>
        <path d="M197.93,353a10.77,10.77,0,0,1-10.59,10H164.53a10.61,10.61,0,0,1-10.47-10L142.47,108c-.26-5.5,2.51-13.36,6.16-17.48,0,0,14.08-15.92,29.91-15.51,15.11.39,28,15.4,28,15.4,3.57,4.18,6.23,12.09,5.91,17.58Z" fill="none" stroke="#fd695e" stroke-miterlimit="10" stroke-width="6"/>
      </g>
      <g>
        <circle cx="176.5" cy="293.5" r="21.5" fill="#fd695e"/>
        <circle cx="176.5" cy="293.5" r="21.5" fill="none" stroke="#fd695e" stroke-miterlimit="10" stroke-width="3"/>
      </g>
      <rect x="123" y="170" width="106" height="97" rx="10" fill="none" stroke="#4d4d4d" stroke-miterlimit="10" stroke-width="8"/>
    </g>
    <image width="924" height="810" transform="translate(126.72 174.15) scale(0.11 0.11)" xlink:href="../images%20(5)/images/steampunk.png"/>
    <path d="M229.5,256.5a10.14,10.14,0,0,1-10,10.09l-87,.82a9.92,9.92,0,0,1-10-9.91v-77a10.14,10.14,0,0,1,10-10.09l87-.82a9.92,9.92,0,0,1,10,9.91Z" fill="none" stroke="#fd695e" stroke-miterlimit="10" stroke-width="9"/>
    <path d="M186.65,86.35c-.42-.81-2.08-1.78-3.69-2.14,0,0-8.24-1.86-17.61,3.42A26.81,26.81,0,0,0,154.2,99.14c-.64,1.52-.81,3.43-.39,4.24s2.18,1.78,3,.33A30.75,30.75,0,0,1,169,92.5c2.4-1.25,16.21-2.85,16.21-2.85C186.85,89.46,187.08,87.16,186.65,86.35Z" fill="#fd695e"/>
  </g>
</svg>
