<svg id="Layer_1" data-name="Layer 1" xmlns="http://www.w3.org/2000/svg" viewBox="0 0 424.5 450"><path d="M25.25,450.75C25.91,434,29.18,417.91,37.41,403c7.75-14,19.26-23.46,33.73-30.06,15-6.83,29.49-14.56,44.23-21.86a14,14,0,0,1,5.75-1.63,34.54,34.54,0,0,1-3.63,4c-2.88,2.35-2.08,4.74-.36,7.17,4.53,6.41,9,12.85,13.7,19.15s9.83,12.51,14.54,18.91c6.86,9.32,13.43,18.86,20.33,28.14,2.73,3.68,5,8.38,10.72,8.19a7.83,7.83,0,0,0,2.81-.68c4.11-1.77,8.15-3.71,12.29-5.43,3.75-1.56,7.12-2.38,10.83,1.14,3.5,3.32,13.08,2.42,16.79-.89,2.19-2,4.18-1.94,6.79-1.07,6.85,2.27,13.79,4.24,20.68,6.38,2.9.9,3.67-.37,4.52-3.07a33,33,0,0,1,4.91-9.07Q268,405.8,280.28,389.5c5.09-6.77,10.48-13.31,15.59-20.07a97.58,97.58,0,0,0,6.57-9.94c1.24-2.14.89-4.21-1.42-5.84-2.53-1.79-4.85-3.89-7.26-5.84l.94-.9c13.68,6.89,27.34,13.84,41.07,20.63,6,3,12.29,5.49,18.33,8.44,13.71,6.68,23.16,17.55,29.53,31.13a107.2,107.2,0,0,1,10.28,40.68c0,1,.23,2,.34,3H215.75c.09-2.48.19-5,.26-7.44.11-3.8-2.71-4.9-5.56-5.28s-6.52-.21-6.93,3.72c-.31,2.94.61,6,1,9Z"/><path d="M313.69,26.54c4.18,13,6.31,25.3-.55,37.37-2.21,3.89-1.83,7,.13,11,7.07,14.45,12.17,29.73,12.42,45.87.56,36,.7,72,.18,108-.24,16.8-6.34,32.41-13.88,47.32A109.31,109.31,0,0,1,277.69,316c-4.94,3.54-10.15,6.71-15.68,10.34,1.49,1.74,2.56,3.22,3.85,4.47,8.37,8.05,16.72,16.12,25.23,24,2.32,2.15,2.89,3.52.68,6.39C282.34,373.48,273.23,386,264,398.38c-2.89,3.9-5.63,7.92-8.53,11.81a47.11,47.11,0,0,1-3.46,3.76l-1.1-.24V391.29c-4.9,1.83-8.74,3.27-12.58,4.68-4.9,1.8-9.79,3.61-14.73,5.28a3.25,3.25,0,0,1-2.7-.29c-3.66-3.33-7.18-6.82-10.32-9.85,14-13.84,28.2-27.86,42.34-41.95a6.06,6.06,0,0,0,1.84-3.52,93.43,93.43,0,0,0,0-11.95c-.16-2.33-1.72-3.25-4.24-2.57-8.42,2.27-16.82,4.66-25.34,6.42-4,.82-8.22.15-12.33.43-15.32,1-30-1.61-44.39-6.86a26.48,26.48,0,0,0-4-.75c0,5.05-.2,9.64.13,14.21.09,1.37,1.48,2.82,2.57,3.94,13.68,14.05,27.42,28,41.65,42.56-3.48,3.38-6.91,7.15-10.85,10.27-1.06.84-3.8.1-5.54-.54-6.54-2.41-13-5.11-19.46-7.63a30.33,30.33,0,0,0-4.24-.9v22.67l-1.13.33L125,358c7.09-6.64,14.46-13.45,21.71-20.38a123.74,123.74,0,0,0,8.62-9.12c1.41-1.67.57-3.19-1.26-4.27q-41-24.24-55.83-69.53a105.64,105.64,0,0,1-5.48-34.51c.38-29.12.61-58.25-.07-87.35-.39-16.88,3.2-32.69,8.89-48.23,10-27.35,29.57-46.21,54-61,14-8.49,29.67-9.85,45.13-12.17a82.5,82.5,0,0,1,33.46,1.47A144.4,144.4,0,0,1,275.43,30.8c9.35,5.95,20.28,6.88,31.1,5.08,2.11-.35,3.8-3.63,5.52-5.69C312.73,29.38,313,28.21,313.69,26.54Zm-2.58,144.84h-.54c0-21.36.24-42.73-.11-64.09-.16-9.9-4.85-18.37-10.84-26.08-1.36-1.76-2.93-2.17-5.23-1.58-19.57,5.06-36.31-.35-50.93-13.84-5.4-5-11.06-9.69-16.85-14.2-7.52-5.85-16-9.13-25.75-8.06-5.82.64-11.68,1.07-17.46,2C161.46,49.07,142,57.66,125.83,73.38c-12.31,12-18.39,26.16-18,43.48.42,21.33.1,42.67.1,64,0,17.37,0,34.74,0,52.1a85.25,85.25,0,0,0,.6,9.72c.75,6.54,4.65,10.4,11.23,11,11.4,1,22.33-1.79,33.15-4.72a265.44,265.44,0,0,1,50-8.88,101.6,101.6,0,0,1,30.87,2.23c12.58,3,25.28,5.45,37.85,8.45,9.16,2.19,18.3,3.93,27.76,2.89,6.62-.72,10.7-4.88,11.16-11.47.33-4.85.56-9.72.58-14.59C311.15,208.86,311.11,190.12,311.11,171.38Z"/><path d="M243.34,426.39c-2.14-.78-3.84-1.42-5.54-2-5.16-1.83-10.33-3.63-15.47-5.5-2.48-.9-4.33-.19-5.9,1.84a14,14,0,0,1-2.67,2.61c-2.86,2.15-6.07,1.82-8.6-.78-4.46-4.58-6.56-4.8-12.52-2.21-5.23,2.26-10.64,4.11-16.63,6.39V402.34c2.7,1.09,5.27,2.15,7.87,3.17,3.82,1.49,7.64,3,11.5,4.4,3.52,1.3,6.56.32,9.33-2.1A21.06,21.06,0,0,1,209,405c1.9-.95,3.37-.41,4.85,1.32,4.25,5,7.17,5.25,13.14,2.48,5.12-2.37,10.48-4.2,16.31-6.49Z"/></svg>