<svg id="ad69d59b-9e06-468a-82d9-e3dd252ef0d3" data-name="Layer 1" xmlns="http://www.w3.org/2000/svg" viewBox="0 0 345 364">
  <path d="M342,161.5C342,74,266.11,3,172.5,3S3,74,3,161.5,78.89,320,172.5,320,342,249,342,161.5" fill="none" stroke="#4d4d4d" stroke-miterlimit="10" stroke-width="6"/>
  <ellipse cx="172.72" cy="162" rx="151.85" ry="142" fill="#666"/>
  <line x1="154" y1="34" x2="156" y2="88" fill="none"/>
  <g>
    <path d="M51.5,206c0,1.1-.68,2-1.5,2s-1.5-.9-1.5-2V127c0-1.1.68-2,1.5-2s1.5.9,1.5,2Z" fill="#fff"/>
    <path d="M84,245c0,1.1-.68,2-1.5,2s-1.5-.9-1.5-2V79c0-1.1.68-2,1.5-2s1.5.9,1.5,2Z" fill="#fff"/>
    <path d="M118.5,277c0,1.1-.68,2-1.5,2s-1.5-.9-1.5-2V52c0-1.1.68-2,1.5-2s1.5.9,1.5,2Z" fill="#fff"/>
    <path d="M153.5,265c0,1.1-.68,2-1.5,2s-1.5-.9-1.5-2V40c0-1.1.68-2,1.5-2s1.5.9,1.5,2Z" fill="#fff"/>
    <path d="M194.5,265c0,1.1-.68,2-1.5,2s-1.5-.9-1.5-2V40c0-1.1.68-2,1.5-2s1.5.9,1.5,2Z" fill="#fff"/>
    <path d="M230.5,274c0,1.1-.68,2-1.5,2s-1.5-.9-1.5-2V49c0-1.1.68-2,1.5-2s1.5.9,1.5,2Z" fill="#fff"/>
    <path d="M266,245c0,1.1-.68,2-1.5,2s-1.5-.9-1.5-2V79c0-1.1.68-2,1.5-2s1.5.9,1.5,2Z" fill="#fff"/>
    <path d="M297.5,207c0,1.1-.68,2-1.5,2s-1.5-.9-1.5-2V128c0-1.1.68-2,1.5-2s1.5.9,1.5,2Z" fill="#fff"/>
  </g>
  <g>
    <g>
      <circle cx="173.5" cy="286.5" r="41.5" fill="#fff"/>
      <circle cx="173.5" cy="286.5" r="41.5" fill="none" stroke="#4d4d4d" stroke-miterlimit="10" stroke-width="6"/>
    </g>
    <g>
      <path d="M194.93,346a10.77,10.77,0,0,1-10.59,10H161.53a10.61,10.61,0,0,1-10.47-10L139.47,101c-.26-5.5,2.51-13.36,6.16-17.48,0,0,14.08-15.92,29.91-15.51,15.11.39,28,15.4,28,15.4,3.57,4.18,6.23,12.09,5.91,17.58Z" fill="#fff"/>
      <path d="M194.93,346a10.77,10.77,0,0,1-10.59,10H161.53a10.61,10.61,0,0,1-10.47-10L139.47,101c-.26-5.5,2.51-13.36,6.16-17.48,0,0,14.08-15.92,29.91-15.51,15.11.39,28,15.4,28,15.4,3.57,4.18,6.23,12.09,5.91,17.58Z" fill="none" stroke="#4d4d4d" stroke-miterlimit="10" stroke-width="6"/>
    </g>
    <g>
      <circle cx="173.5" cy="286.5" r="21.5" fill="#fff"/>
      <circle cx="173.5" cy="286.5" r="21.5" fill="none" stroke="#4d4d4d" stroke-miterlimit="10" stroke-width="3"/>
    </g>
    <g>
      <rect x="120" y="163" width="106" height="97" rx="10" fill="#fff"/>
      <rect x="120" y="163" width="106" height="97" rx="10" fill="none" stroke="#4d4d4d" stroke-miterlimit="10" stroke-width="8"/>
    </g>
  </g>
  <path d="M226.5,249.5a10.14,10.14,0,0,1-10,10.09l-87,.82a9.92,9.92,0,0,1-10-9.91v-77a10.14,10.14,0,0,1,10-10.09l87-.82a9.92,9.92,0,0,1,10,9.91Z" fill="none" stroke="#4d4d4d" stroke-miterlimit="10" stroke-width="9"/>
  <path d="M183.65,79.35c-.42-.81-2.08-1.78-3.69-2.14,0,0-8.24-1.86-17.61,3.42A26.81,26.81,0,0,0,151.2,92.14c-.64,1.52-.81,3.43-.39,4.24s2.18,1.78,3,.33A30.75,30.75,0,0,1,166,85.5c2.4-1.25,16.21-2.85,16.21-2.85C183.85,82.46,184.08,80.16,183.65,79.35Z" fill="#666"/>
</svg>
