<svg id="e7f31bfb-8fdb-4147-b40c-fc00db737a74" data-name="a6d78506-85ba-4f90-a5a5-ccb3bd16ab6d" xmlns="http://www.w3.org/2000/svg" viewBox="0 0 369 441">
  <g>
    <path d="M1,432c1.31-5.95,2.42-12,4-17.84,6.24-23.65,20.24-40.61,42.74-50.71,13.92-6.25,27.37-13.54,41.06-20.31,2-1,4.17-1.7,6.36-2.58.21.87.44,1.26.33,1.41-4.95,6.73-5.07,6.81,0,13.74q23.76,32.7,47.69,65.27c4.08,5.55,6.9,6.24,13.28,3.51,3-1.31,6-2.73,9.09-4.08,4.35-1.93,8.21-2.14,12.55,1,4.72,3.38,10,1.87,15.13-.37a16.26,16.26,0,0,1,9.19-1.11c6.14,1.28,12,3.66,18.15,5.18,1.41.35,4-.42,4.73-1.54,7.06-10.23,13.55-20.86,20.77-31,8.9-12.44,18.51-24.37,27.5-36.76,5.5-7.59,5.23-7.78-1.93-13.87a7.29,7.29,0,0,1-2.56-3.7c1.28.52,2.58,1,3.82,1.58q27.5,13.5,55,26.92a58.71,58.71,0,0,1,24.7,21.84A99.24,99.24,0,0,1,368,442H190.48a71.15,71.15,0,0,0,.09-8c-.44-4.57-4.27-4.69-7.47-4.69-3,0-4.87,2-4.56,5.27.23,2.47.64,4.92,1,7.38H1Z" fill="#fd695e"/>
    <path d="M144,383.44v22.8l-1.23.41L100.14,349.3c6.22-5.9,12.26-11.56,18.22-17.31,3.47-3.35,6.71-6.94,10.2-10.25,3.22-3.05,2.65-4.94-1-7.18a118.33,118.33,0,0,1-35-31.5C74.8,258.8,66.81,231.79,68,201.57c.93-22.94.49-46-.06-68.94-.47-19.38,1.74-38.15,8.74-56.25l1.31,1c1.48-1.33,3.57-2.37,4.33-4,8.5-18.38,18.37-35.79,35-47.91,34.15-24.93,71.07-26.82,109-10.42,28.52,12.34,49.47,33.11,61.65,62.56l4.1-1.35a7.43,7.43,0,0,1,.89,1.27c5.47,13.46,7.55,27.48,7.48,42-.14,34,1.37,68.05-.43,101.94-1.88,35.39-18.68,64-47,85.52-5,3.78-10.36,7-15.82,10.74,6.81,6.86,13.31,13.47,19.89,20,2.83,2.82,5.8,5.49,8.73,8.19,2.18,2,2.58,4.13.75,6.6l-36.82,49.76a37.62,37.62,0,0,1-3.91,3.77V382.78c-7.63,2.81-14.69,5-21.41,8-5.77,2.56-10.1,1.71-13.87-3.3a49,49,0,0,0-4.68-4.77c7.37-7.59,14.63-15.13,21.95-22.61,5-5.12,9.69-10.66,15.26-15.08,6.6-5.24,7.15-11.79,6.39-19.17-.33-3.11-1.68-4.08-4.66-3.1-2.36.77-4.81,1.28-7.19,2a116.43,116.43,0,0,1-72.44-1.65c-1.51-.52-3.11-.81-4.89-1.26-1.13,8.79-.69,15.9,6.42,22.46,12.92,11.93,24.75,25,37.38,38-3.38,3.31-6.3,6.75-9.83,9.37-1.47,1.1-4.44,1.12-6.36.5-5.83-1.89-11.48-4.35-17.22-6.52C148.8,384.91,146.91,384.39,144,383.44ZM88.7,81.78c-5,10.43-5.6,21.14-5.43,32.05.26,16.82.24,33.64.3,50.45.08,22.48,0,44.95.28,67.42.12,8.92,4.63,13.5,13.45,13.11,8.54-.39,17.08-1.95,25.53-3.47,17.44-3.15,34.76-7,52.25-9.84s34.57,2.27,51.61,5.89c12.8,2.72,25.58,6.12,38.55,7.34,16.15,1.52,19.93-2.68,19.95-18.81.05-39.14-.08-78.27-.13-117.41,0-9-.09-18-4.67-26.28l4.77-3c-1-2.24-1.79-4.23-2.7-6.17C270.74,48,251.5,30.5,227,18.61,186.42-1.07,139,6.34,109.14,37,97.53,49,89.94,63.45,83.5,78.77ZM229,256.92c-3.26-2-3.23-2-6.11.74-13.72,13-29.9,17.92-48.5,14.42-12.36-2.33-22.38-8.78-30.9-18.27l-3.85,2.91C157.89,286.52,208.53,286.64,229,256.92Z" fill="#fd695e"/>
    <path d="M218.06,393.34v24.33c-6.41-2.26-12.5-4.22-18.43-6.58-3.71-1.48-6.4-1.15-9.22,2-3.8,4.22-6.75,4.17-11,.14-3.32-3.13-6.66-3.72-10.84-1.89-5.43,2.37-11,4.39-17.07,6.77v-24.3c5.7,2.18,11.27,4.07,16.62,6.44,4.47,2,8.3,1.66,11.92-1.62s7-3.84,10.54.48c2.88,3.54,6.61,2.91,10.42,1.24C206.39,398,211.91,395.85,218.06,393.34Z" fill="#fd695e"/>
    <path d="M159.57,187.08c-21.16-11.65-28.54-11.69-54-.52a63.29,63.29,0,0,1,.12-8.49,4.67,4.67,0,0,1,2.49-3.06c16.26-6.66,32.59-6.58,48.82.08,1.15.47,2.06,2.22,2.48,3.56s.1,3,.1,4.46Z" fill="#fd695e"/>
    <path d="M264.28,186.88c-17.9-11.87-35.13-11.78-53-.27,0-3.39-.31-6.18.13-8.86a5.29,5.29,0,0,1,2.83-3.37c15.62-6.22,31.34-6.32,46.92.09,1.38.57,2.66,2.63,3,4.21C264.65,181.05,264.28,183.6,264.28,186.88Z" fill="#fd695e"/>
  </g>
</svg>
