<svg id="ba35bcc6-3c67-42fb-92bd-a1d812305757" data-name="ef8ffaab-9adb-4a07-80f0-3417b526f6e8" xmlns="http://www.w3.org/2000/svg" viewBox="0 0 369 451">
  <g>
    <path d="M1,443c1.65-7.4,2.86-14.94,5-22.18,6.18-20.6,18.71-36,38.28-45.43,14.79-7.15,29.45-14.57,44.2-21.81,2.29-1.12,4.74-1.9,8.06-3.22-5.43,9.33-5.55,9.42.54,17.77q23,31.61,46.31,63.05c4,5.35,6.78,6,12.9,3.36,2.89-1.24,5.8-2.46,8.63-3.84,4.67-2.29,8.75-2.47,13.44.82,4.53,3.18,10,2.3,14.58-.7,3.33-2.21,6.28-2.24,9.83-1,6,2,12,3.85,18.11,5.4a5,5,0,0,0,4.28-1.55c5.19-7.67,9.73-15.79,15.17-23.27,10.46-14.37,21.52-28.3,32-42.63,6.56-8.93,6.32-9.1-1.82-16.09a4.76,4.76,0,0,1-1.8-2.86,15,15,0,0,1,3.17.79c19.24,9.38,38.49,18.72,57.65,28.25C342,384.09,350.86,394,357,406.42a104.22,104.22,0,0,1,11.22,44.35H190.71c.12-5.54.83-12.71-8.12-11-6.66,1.25-2.66,7-3.36,11.28H1Z" fill="#fd695e"/>
    <path d="M238,327.84c8.51,8.83,16.57,17.6,25.09,25.9,6.18,6,6.38,5.68,1.12,12.72-10.44,14-20.78,28-31.19,42-1.85,2.48-3.86,4.83-5.8,7.24l-1.31-.38V393.23c-8.22,3-15.63,5.28-22.73,8.33-4.76,2.05-8.18,1.34-11.37-2.53a45.88,45.88,0,0,0-5.14-5.29c6.94-7.75,13.72-15.64,20.87-23.2,6-6.39,12.54-12.36,18.77-18.59,3.14-3.14,4.93-13.9,2.71-17.31-.59-.9-2.56-1.46-3.76-1.29a56.15,56.15,0,0,0-8.19,2.08c-23.82,7.16-47.47,6.36-71-1.48-1.84-.61-3.73-1-5.75-1.6-1.32,9.18,0,16.56,7.13,22.94,12.86,11.49,25,23.75,38.1,36.24-4.65,4.39-7.7,7.91-11.42,10.46-1.61,1.12-4.8.89-6.91.18-7.35-2.47-14.55-5.41-22.8-8.55V416.3l-1.65.61L100,359.6c7.64-7.09,15.07-13.94,22.44-20.85,2.06-1.93,3.9-4.09,5.91-6.07,3.1-3.07,3-5.21-1.07-7.64a116.74,116.74,0,0,1-35.84-32.7C76.3,270.9,67.8,247.34,68,220.69c.25-29.07-.71-58.16,0-87.22.94-40.87,16.34-74.84,50.44-99,.8-.57,1.64-1.08,3.16-2.09,5,19.61,3.13,38-4.92,57L100,78Q83.5,94.5,83.58,118.32q.12,50.63.12,101.25c0,8.79-1,17.65-.21,26.35,2.09,22.48,13.63,39.86,31,53.68,43.14,34.33,112.78,29.72,150.24-10.05,14.46-15.35,21.1-33.71,20.8-54.89-.42-29.07-.22-58.15-.41-87.23-.09-13.78-.09-27.59-.83-41.35C283.85,98,279.49,90.43,273.5,84l-8.22,4.41c8.49-16,12.1-32,11.76-46.79l11.82-10.71c4,11,5.75,22.47.1,33.71-2.68,5.33-2.75,9.63,0,14.9,10.19,19.56,12.13,40.86,12.17,62.46.06,27.93,1.09,55.91-.24,83.78-1.95,41-19.7,73.89-54.56,96.7Z" fill="#fd695e"/>
    <path d="M145.85,98.41C163,72.48,165.9,45.89,155.09,17.29c8-1.19,15.45-2.42,22.95-3.28,1.11-.13,3.06,1.24,3.54,2.37q18.3,43.1-5.92,83.25a4.17,4.17,0,0,1-3,2C164,100.72,155.36,99.58,145.85,98.41Z" fill="#fd695e"/>
    <path d="M184.71,12.3c8,1.09,16,2,23.91,3.41,1.38.23,3,2.07,3.57,3.53,10.91,27.5,9.08,54.16-5.84,79.76a6.5,6.5,0,0,1-4.56,2.89c-7.58.3-15.19.14-23.88.14,16.81-28.74,18.78-58,5.92-88.15Z" fill="#fd695e"/>
    <path d="M152.25,18.18c11.21,28.08,7.62,54.29-9.29,79.52L121.12,91c2.07-12.25,4.64-23.53,5.67-34.95.64-7.13-.83-14.5-1.83-21.69-.4-2.88-.09-4.48,2.51-6.09A71.94,71.94,0,0,1,152.25,18.18Z" fill="#fd695e"/>
    <path d="M216.1,17.15c7.36,3.17,14.74,6.28,22,9.62,1,.45,1.68,2,2.11,3.18,7.73,21.25,7.9,42.46-.25,63.68-1.08,2.81-2.64,4.23-5.65,4.63-8.35,1.11-16.67,2.46-26.1,3.88,7.49-13.68,12.37-27.07,13.38-41.67a97.5,97.5,0,0,0-6.48-41.91Z" fill="#fd695e"/>
    <path d="M244.86,30.19c8.2,5.71,17.74,10,29.13,9a86.76,86.76,0,0,1-5.67,35.65c-.47,1.24-1.17,2.41-1.51,3.68-3.24,12.24-12.72,15.89-23.14,17.25C245.37,85,248.28,74,248.49,63S246.19,41.16,244.86,30.19Z" fill="#fd695e"/>
    <path d="M151.28,403.69c6.21,2.38,11.94,4.4,17.51,6.78,4.13,1.76,7.68,1.37,11-1.61,3.64-3.26,7.16-3.74,10.79.2,3,3.28,6.53,3,10.44,1.31,5.39-2.37,11-4.29,17.06-6.63V427.8c-6.1-2.1-12.06-3.82-17.74-6.22-4.1-1.72-7-1.23-10.19,1.89-3.43,3.39-7.37,3.56-10.94-.17-3.05-3.19-6.44-3.42-10.41-1.73-5.58,2.36-11.3,4.42-17.52,6.82Z" fill="#fd695e"/>
    <path d="M229.25,258.85c-19.83,17.95-71.71,17.84-88.79,0,3.3-2.6,6.21-2.62,10.27-.68,22.73,10.85,45.75,10.71,68.68.41C224,256.52,223.92,256.3,229.25,258.85Z" fill="#fd695e"/>
    <path d="M104.92,203.46c-.38-13.18-2.41-11.16,9.78-14.88s24.53-2.94,36.73.92c4.71,1.48,7.62,3.59,6.46,9a28.87,28.87,0,0,0,0,4.92C140.05,191.85,122.66,191.62,104.92,203.46Z" fill="#fd695e"/>
    <path d="M262.57,203.58c-18.08-11.9-35.34-11.77-53.22,0,0-3.29-.37-5.92.13-8.39.32-1.59,1.59-3.69,3-4.25a60.4,60.4,0,0,1,47-.05c1.39.56,2.68,2.64,3,4.23C262.94,197.51,262.57,200.07,262.57,203.58Z" fill="#fd695e"/>
  </g>
</svg>
