<svg id="f2814c13-3958-4f71-9785-31c58e1397b8" data-name="Layer 1" xmlns="http://www.w3.org/2000/svg" viewBox="0 0 345 323">
  <path d="M342,161.5C342,74,266.11,3,172.5,3S3,74,3,161.5,78.89,320,172.5,320,342,249,342,161.5" fill="none" stroke="#4d4d4d" stroke-miterlimit="10" stroke-width="6"/>
  <ellipse cx="172.72" cy="162" rx="151.85" ry="142" fill="#666"/>
  <g>
    <path d="M51,203c0,1.1-.68,2-1.5,2s-1.5-.9-1.5-2V124c0-1.1.68-2,1.5-2s1.5.9,1.5,2Z" fill="#fff"/>
    <path d="M83.5,242c0,1.1-.67,2-1.5,2s-1.5-.9-1.5-2V76c0-1.1.68-2,1.5-2s1.5.9,1.5,2Z" fill="#fff"/>
    <path d="M118,274c0,1.1-.67,2-1.5,2s-1.5-.9-1.5-2V49c0-1.1.68-2,1.5-2s1.5.9,1.5,2Z" fill="#fff"/>
    <path d="M153,287.87a1.73,1.73,0,1,1-3.41,0V37A1.73,1.73,0,1,1,153,37Z" fill="#fff"/>
    <path d="M194,287.87a1.73,1.73,0,1,1-3.41,0V37A1.73,1.73,0,1,1,194,37Z" fill="#fff"/>
    <path d="M230,271c0,1.1-.67,2-1.5,2s-1.5-.9-1.5-2V46c0-1.1.68-2,1.5-2s1.5.9,1.5,2Z" fill="#fff"/>
    <path d="M265.5,242c0,1.1-.67,2-1.5,2s-1.5-.9-1.5-2V76c0-1.1.68-2,1.5-2s1.5.9,1.5,2Z" fill="#fff"/>
    <path d="M297,204c0,1.1-.67,2-1.5,2s-1.5-.9-1.5-2V125c0-1.1.68-2,1.5-2s1.5.9,1.5,2Z" fill="#fff"/>
  </g>
  <circle cx="173.59" cy="278.87" r="30" fill="#fff" stroke="#4d4d4d" stroke-miterlimit="10" stroke-width="6"/>
  <circle cx="173.22" cy="278.5" r="13.7" fill="#fff" stroke="#4d4d4d" stroke-miterlimit="10" stroke-width="6"/>
  <rect x="96.59" y="85.87" width="150" height="131" fill="#fff" stroke="#4d4d4d" stroke-miterlimit="10" stroke-width="6"/>
</svg>
