<svg id="f54e6542-f0d0-4246-8e0f-000e06020f1c" data-name="Layer 1" xmlns="http://www.w3.org/2000/svg" xmlns:xlink="http://www.w3.org/1999/xlink" viewBox="0 0 357 372">
  <g>
    <path d="M350,174.5C350,87,274.11,16,180.5,16S11,87,11,174.5,86.89,333,180.5,333,350,262,350,174.5" fill="none" stroke="#fd695e" stroke-miterlimit="10" stroke-width="6"/>
    <ellipse cx="180.72" cy="175" rx="151.85" ry="142" fill="#f8d2bf"/>
    <line x1="162" y1="47" x2="164" y2="101" fill="none"/>
    <g>
      <path d="M59.5,219c0,1.1-.68,2-1.5,2s-1.5-.9-1.5-2V140c0-1.1.68-2,1.5-2s1.5.9,1.5,2Z" fill="#fff"/>
      <path d="M92,258c0,1.1-.68,2-1.5,2s-1.5-.9-1.5-2V92c0-1.1.68-2,1.5-2s1.5.9,1.5,2Z" fill="#fff"/>
      <path d="M126.5,290c0,1.1-.68,2-1.5,2s-1.5-.9-1.5-2V65c0-1.1.68-2,1.5-2s1.5.9,1.5,2Z" fill="#fff"/>
      <path d="M161.5,278c0,1.1-.68,2-1.5,2s-1.5-.9-1.5-2V53c0-1.1.68-2,1.5-2s1.5.9,1.5,2Z" fill="#fff"/>
      <path d="M202.5,278c0,1.1-.68,2-1.5,2s-1.5-.9-1.5-2V53c0-1.1.68-2,1.5-2s1.5.9,1.5,2Z" fill="#fff"/>
      <path d="M238.5,287c0,1.1-.68,2-1.5,2s-1.5-.9-1.5-2V62c0-1.1.68-2,1.5-2s1.5.9,1.5,2Z" fill="#fff"/>
      <path d="M274,258c0,1.1-.68,2-1.5,2s-1.5-.9-1.5-2V92c0-1.1.68-2,1.5-2s1.5.9,1.5,2Z" fill="#fff"/>
      <path d="M305.5,220c0,1.1-.68,2-1.5,2s-1.5-.9-1.5-2V141c0-1.1.68-2,1.5-2s1.5.9,1.5,2Z" fill="#fff"/>
    </g>
    <g>
      <g>
        <circle cx="181.5" cy="299.5" r="41.5" fill="#fff"/>
        <circle cx="181.5" cy="299.5" r="41.5" fill="none" stroke="#fd695e" stroke-miterlimit="10" stroke-width="6"/>
      </g>
      <g>
        <path d="M202.93,359a10.77,10.77,0,0,1-10.59,10H169.53a10.61,10.61,0,0,1-10.47-10L147.47,114c-.26-5.5,2.51-13.36,6.16-17.48,0,0,14.08-15.92,29.91-15.51,15.11.39,28,15.4,28,15.4,3.57,4.18,6.23,12.09,5.91,17.58Z" fill="#fff"/>
        <path d="M202.93,359a10.77,10.77,0,0,1-10.59,10H169.53a10.61,10.61,0,0,1-10.47-10L147.47,114c-.26-5.5,2.51-13.36,6.16-17.48,0,0,14.08-15.92,29.91-15.51,15.11.39,28,15.4,28,15.4,3.57,4.18,6.23,12.09,5.91,17.58Z" fill="none" stroke="#fd695e" stroke-miterlimit="10" stroke-width="6"/>
      </g>
      <g>
        <circle cx="181.5" cy="299.5" r="21.5" fill="#fd695e"/>
        <circle cx="181.5" cy="299.5" r="21.5" fill="none" stroke="#fd695e" stroke-miterlimit="10" stroke-width="3"/>
      </g>
      <path d="M234,176v87a10,10,0,0,1-10,10H138a10,10,0,0,1-10-10V176" fill="none" stroke="#4d4d4d" stroke-miterlimit="10" stroke-width="8"/>
    </g>
    <image width="808" height="924" transform="translate(130.56 155.92) scale(0.13)" xlink:href="../images%20(5)/images/mowintime.png"/>
    <path d="M234.5,262.27a10.16,10.16,0,0,1-10,10.11l-87,1a9.9,9.9,0,0,1-10-9.89V164.15a10.16,10.16,0,0,1,10-10.11l87-1a9.88,9.88,0,0,1,10,9.88Z" fill="none" stroke="#fd695e" stroke-miterlimit="10" stroke-width="9"/>
    <path d="M191.65,92.35c-.42-.81-2.08-1.78-3.69-2.14,0,0-8.24-1.86-17.61,3.42a26.81,26.81,0,0,0-11.15,11.51c-.64,1.52-.81,3.43-.39,4.24s2.18,1.78,3,.33A30.75,30.75,0,0,1,174,98.5c2.4-1.25,16.21-2.85,16.21-2.85C191.85,95.46,192.08,93.16,191.65,92.35Z" fill="#fd695e"/>
  </g>
</svg>
