<svg id="ad3d9d94-2f7d-4f6e-be6e-0cd468d196c6" data-name="Layer 1" xmlns="http://www.w3.org/2000/svg" viewBox="0 0 114 294.01">
  <g>
    <g>
      <circle cx="57.5" cy="221.51" r="41.5" fill="#fff"/>
      <circle cx="57.5" cy="221.51" r="41.5" fill="none" stroke="#4d4d4d" stroke-miterlimit="10" stroke-width="6"/>
    </g>
    <g>
      <path d="M78.93,281a10.77,10.77,0,0,1-10.59,10H45.53a10.62,10.62,0,0,1-10.47-10L23.47,36c-.26-5.5,2.51-13.36,6.16-17.48,0,0,14.08-15.92,29.91-15.51,15.11.39,28,15.4,28,15.4C91.07,22.59,93.73,30.5,93.41,36Z" fill="#fff"/>
      <path d="M78.93,281a10.77,10.77,0,0,1-10.59,10H45.53a10.62,10.62,0,0,1-10.47-10L23.47,36c-.26-5.5,2.51-13.36,6.16-17.48,0,0,14.08-15.92,29.91-15.51,15.11.39,28,15.4,28,15.4C91.07,22.59,93.73,30.5,93.41,36Z" fill="none" stroke="#4d4d4d" stroke-miterlimit="10" stroke-width="6"/>
    </g>
    <g>
      <circle cx="57.5" cy="221.51" r="21.5" fill="#fff"/>
      <circle cx="57.5" cy="221.51" r="21.5" fill="none" stroke="#4d4d4d" stroke-miterlimit="10" stroke-width="3"/>
    </g>
    <g>
      <rect x="4" y="98.01" width="106" height="97" rx="10" fill="#fff"/>
      <rect x="4" y="98.01" width="106" height="97" rx="10" fill="none" stroke="#4d4d4d" stroke-miterlimit="10" stroke-width="8"/>
    </g>
  </g>
  <path d="M66.36,15c-.42-.81-2.08-1.77-3.69-2.14,0,0-8.24-1.86-17.61,3.43a26.76,26.76,0,0,0-11.15,11.5c-.64,1.52-.81,3.43-.39,4.25s2.18,1.77,3,.32A30.83,30.83,0,0,1,48.71,21.11c2.4-1.24,16.21-2.84,16.21-2.84C66.56,18.08,66.79,15.78,66.36,15Z" fill="#666"/>
</svg>
