<svg id="bf805348-342d-4146-8b26-ee40b8faa285" data-name="e2acdd8c-1dff-4093-bc81-26ce8cbc7f27" xmlns="http://www.w3.org/2000/svg" viewBox="0 0 370 452">
  <g>
    <path d="M185.36,392.31c-2.62,2.51-4.69,4.41-6.67,6.41-3.31,3.35-7.13,3.88-11.43,2.31-7-2.56-14-5.07-21.86-7.93v22.18l-1.57.58-42.29-56.79,23.2-20.87c9.75-8.76,9.7-9.18-1-16.78-28-19.79-46.34-46.1-52-80.24-1.79-10.74-1.59-21.89-1.66-32.86-.17-27.81-1.21-55.69.33-83.42,2.65-47.8,26.57-83.34,70-102.25,36-15.71,72.94-13.1,107.34,8.45a59.93,59.93,0,0,0,17.81,7.28c8.74,2,17.7,2.44,23.5-7.86,4.75,11.53,5.58,22.41.65,33.09-2.61,5.67-2.6,10.48.21,16.07,8.44,16.86,11.22,35.06,11.36,53.73.2,27,.45,54,.42,81,0,18.25-2.32,36.16-9.23,53.27-9.65,23.88-26.13,41.85-47.53,55.61-1.63,1-3.21,2.2-5.5,3.78,8.17,8.81,15.85,17.26,23.71,25.52,6.62,7,6.68,6.83,1,14.48q-16,21.69-32,43.43a12.74,12.74,0,0,1-4.55,4.11V392.34c-6.76,2.4-12.36,4.3-17.89,6.37-12.09,4.52-12.07,4.56-21.57-5.67,3.4-3.67,6.8-7.44,10.31-11.09q13.34-13.84,26.76-27.59a18.69,18.69,0,0,0,5.72-14.87c-.35-6-2.49-7.55-8.37-6.21-8.71,2-17.4,4.22-26.22,5.56-16.25,2.47-32.08-.38-47.63-5.15-7.41-2.27-8.69-1.19-8,6.67.56,6.4,4,10.95,8.46,15.31C161.17,367.57,173,379.75,185.36,392.31Zm101-213.92V111.93a38.62,38.62,0,0,0-9.58-26.14c-1.86-2.11-6-4-8.51-3.46C249,86.42,233,80.19,218.88,67.41c-4.56-4.12-9.53-7.79-14-12-9.73-9-21.21-11.1-33.82-9.26-1.81.26-3.63.41-5.44.63C143.35,49.48,123.09,57,106,72c-14.26,12.54-21.74,28.09-21.6,47.41.26,34.65.12,69.31.13,104a37.93,37.93,0,0,1-.18,5c-3.43,26.12,5.26,47.93,24,65.79,21.12,20.18,47,28.87,75.72,29.3,27.72.42,52.74-7.43,74.13-25.56,15.85-13.43,26.9-30.08,28-51.11,1.09-22.77.18-45.63.18-68.46Z" fill="#fd695e"/>
    <path d="M179.29,451H10c-7.19,0-7.68-.08-6.89-7.14,3.47-30.83,15-56.35,45.45-69.79,13.81-6.09,27.12-13.31,40.68-20,2-1,4.11-1.83,6.43-2.85-1.1,3.17-3,6-2.64,8.41.44,2.69,2.92,5.1,4.68,7.51q22.5,30.84,45.09,61.63c5.6,7.64,8.64,8.45,17.35,4.74,2.44-1,4.84-2.18,7.27-3.27,3.93-1.76,7.72-1.68,11.3.89A11.32,11.32,0,0,0,191,432.27c7-3.6,13.73-2.55,20.71-.21,4,1.36,8.79,3.83,12.25,2.73,3-1,4.46-6.35,6.86-9.59,11.25-15.27,22.61-30.46,33.9-45.7,3.66-4.94,7.26-9.94,10.83-14.95,4.05-5.65,3.89-6.77-1.37-11.63-.46-.43-.79-1-2.09-2.64,2.48.9,3.77,1.25,5,1.82,17.08,8.14,34.18,16.25,51.22,24.48,19.18,9.27,29.81,25.48,35.42,45.31,2.59,9.16,3.94,18.67,6,28.59-2.92.16-4.54.33-6.15.33q-82.74,0-165.47.07c-3.38,0-5.64-.42-6.26-4.38s-1.67-8.33-7.26-7.5-5.37,5-5,9.21A26.14,26.14,0,0,1,179.29,451Z" fill="#fd695e"/>
    <path d="M218.8,403.53V427.1c-6.12-2.17-11.74-4-17.23-6.18-4-1.58-7.35-1.48-10.37,1.87-3.31,3.68-6.79,3.67-10.32.23-3.7-3.6-7.73-3.72-12.34-1.62-4.78,2.19-9.8,3.86-15.3,6V403.84c4.9,2,9.31,3.78,13.64,5.7,5.64,2.51,10.85,2.64,15.6-2,2.65-2.61,5.43-2.12,7.85.45,3.78,4,8,4,12.74,1.91C208,407.71,213.13,405.8,218.8,403.53Z" fill="#fd695e"/>
    <path d="M130.88,256.31c5.47-5.21,5.47-5.21,10.64-.85,24.42,20.6,61.64,21.23,87.1,1.48,4.18-3.25,4.18-3.25,9.8-1.79-10.11,13.68-23.43,21.11-39.49,23.48C172.69,282.49,149.26,277.18,130.88,256.31Z" fill="#fd695e"/>
    <path d="M263.54,184.78c-17.07-10.57-33.88-10.88-50.45-.31C210,178,211,175,216.92,172.75c13.91-5.18,28-4.83,41.93-.29C264,174.13,264.69,176.15,263.54,184.78Z" fill="#fd695e"/>
    <path d="M157.65,184.67c-16.87-10.66-33.82-10.59-50.5.19-2.47-6.53-.92-10.29,4.93-12.34a59.64,59.64,0,0,1,39.47-.44C158.44,174.36,159.59,176.55,157.65,184.67Z" fill="#fd695e"/>
  </g>
</svg>
