<svg id="b1404c45-aa43-4094-9113-b4fe4e3f3cf5" data-name="Layer 1" xmlns="http://www.w3.org/2000/svg" viewBox="0 0 368.05 450.32">
  <g>
    <path d="M99.5,357.75q12.75-11.36,25.37-22.6a28.25,28.25,0,0,0,2.17-2.07c4.86-5.33,4.45-6.54-1.46-10.42C100.17,306,82,283.73,72.8,254.35a108.91,108.91,0,0,1-5.27-34.11c.34-29.19.52-58.4-.06-87.58-.29-15,2.69-29.14,7.27-43.19,9.56-29.31,29.54-49.55,55.31-65.2,14-8.48,29.6-9.92,45-12.22a83.16,83.16,0,0,1,33.78,1.5,145.75,145.75,0,0,1,41.2,17.93c9.2,5.85,20,6.76,30.7,5,2.12-.35,3.85-3.54,5.59-5.57a12.35,12.35,0,0,0,1.38-3.09c4.47,7.29,6.07,26.83.72,34.82-3.12,4.67-2.79,8.7-.24,14,7.18,15,11.87,31,12,47.79.26,32.57.31,65.13.41,97.69.06,19.38-5.75,37.25-14.37,54.32A108.42,108.42,0,0,1,252,316.25c-4.93,3.52-10.12,6.7-15.73,10.39,7.3,7.29,14.12,14.17,21,20.95,2.85,2.79,5.87,5.4,8.92,8,1.86,1.57,2.16,2.84.54,5-9.54,12.59-18.94,25.28-28.35,38-2.89,3.89-5.69,7.85-8.5,11.81-1,1.39-1.89,2.86-2.83,4.29l-1.77-1V391.26c-4.84,1.84-8.7,3.35-12.58,4.79-4.77,1.75-9.55,3.49-14.37,5.12a3.28,3.28,0,0,1-2.72-.16c-3.74-3.38-7.33-6.93-10.43-9.91,3.59-3.49,7.29-7,10.91-10.59,10.35-10.28,20.71-20.56,30.95-31a8.53,8.53,0,0,0,2.33-4.81,64.09,64.09,0,0,0,0-10.82c-.17-2.25-1.48-3.46-4.1-2.76-8.4,2.24-16.8,4.55-25.29,6.43-3.23.71-6.7.22-10.06.43A110.17,110.17,0,0,1,143,331.1a8,8,0,0,0-1.81-.43,13.47,13.47,0,0,0-1.94.08c0,4.73-.2,9.42.13,14.08.1,1.35,1.58,2.75,2.68,3.88,13.65,14,27.35,28,41.64,42.55-3.47,3.25-6.77,6.85-10.64,9.67-1.3.95-4.22.38-6.12-.3-6.43-2.29-12.72-5-19.09-7.43a37.21,37.21,0,0,0-4.42-1.05V415l-1.13.19C128.21,396.29,114.14,377.41,99.5,357.75Zm186-186h-.55c0-21.33.24-42.66-.1-64-.16-9.89-4.85-18.34-10.82-26-1.37-1.75-2.93-2.16-5.23-1.57-19.54,5.06-36.25-.35-50.84-13.82-5.39-5-11-9.68-16.82-14.17-7.51-5.84-16-9.12-25.71-8.05-5.81.64-11.66,1.06-17.42,2-21.91,3.54-41.35,12.11-57.47,27.81-12.29,12-18.35,26.12-18,43.41.42,21.67.1,43.35.1,65,0,17,0,33.93,0,50.89a87.23,87.23,0,0,0,.59,9.7c.75,6.53,4.65,10.39,11.21,11,11.39,1,22.29-1.79,33.1-4.71a265.3,265.3,0,0,1,49.89-8.87,101.53,101.53,0,0,1,30.81,2.23c12.56,3,25.24,5.44,37.79,8.44,9.14,2.18,18.27,3.91,27.7,2.88,6.61-.72,10.69-4.88,11.14-11.45.34-4.85.57-9.71.58-14.57C285.53,209.13,285.49,190.42,285.49,171.71Z"/>
    <path d="M368,450.32H190.6c0-2.11,0-4.07,0-6,0-4.28-2.74-6.74-7.13-6.51-4.15.22-6.44,2.95-5.89,7.26a40.14,40.14,0,0,0,1.39,5.23H0c.62-5.72.93-11.39,1.88-16.94,3.1-17.95,9.88-34.15,23.24-47.06,6.56-6.35,14.61-10.17,22.76-14,14.16-6.73,28.05-14,42.07-21a15.89,15.89,0,0,1,5.85-1.74,32.58,32.58,0,0,1-3.48,3.91c-3,2.44-2.2,4.86-.33,7.43,3.66,5,7.26,10.09,11,15.08,5.78,7.76,11.72,15.41,17.45,23.21,6.54,8.91,12.89,18,19.42,26.88,1.91,2.6,3.75,5.55,6.33,7.26a10,10,0,0,0,7.5.94c4.37-1.28,8.4-3.68,12.64-5.43,3.61-1.49,6.89-2.34,10.47,1.12s13.17,2.57,16.77-.7c2.31-2.1,4.39-2,7.11-1.09,6.71,2.25,13.52,4.19,20.29,6.26,2.67.81,3.82.08,4.65-2.88a30.36,30.36,0,0,1,4.81-9.09q12-16.68,24.4-33.1c5-6.66,10.33-13.09,15.36-19.74a102.73,102.73,0,0,0,6.74-10.24c1.15-2,.68-3.89-1.37-5.54a82.34,82.34,0,0,1-6.35-6.28c10.32,4.8,20.91,9.61,31.39,14.65s21.16,9.94,31.33,15.66c10.76,6.06,18.76,15.14,24.42,26.13a109.4,109.4,0,0,1,11.65,41C368.13,446.71,368,448.53,368,450.32Z"/>
    <path d="M150.63,402.15c5,2.16,9.69,4.12,14.33,6.15,5.74,2.52,11,3.26,16-2,2.81-2.93,5.15-2.39,7.84.54,3.69,4,7,4.43,12,2.18,5.36-2.43,10.92-4.42,17-6.83V426.3c-2.13-.78-3.82-1.41-5.52-2-5.15-1.83-10.31-3.62-15.45-5.49-2.46-.89-4.32-.21-5.89,1.82a14,14,0,0,1-2.66,2.61c-2.85,2.15-6.07,1.82-8.58-.76-4.45-4.57-6.59-4.8-12.5-2.23-5.22,2.26-10.62,4.11-16.61,6.4Z"/>
  </g>
  <ellipse cx="183.7" cy="237.62" rx="101.5" ry="84" fill="#fff"/>
  <path d="M104.2,173.2a61.42,61.42,0,0,1,53,0l-.06,11a42.29,42.29,0,0,0-25.27-9,42.9,42.9,0,0,0-27.67,9Z"/>
  <path d="M210.2,173.2a61.42,61.42,0,0,1,53,0l-.06,11a42.29,42.29,0,0,0-25.27-9,42.9,42.9,0,0,0-27.67,9Z"/>
  <path d="M236.2,254.57c-1.07,1.35-17.74,21.67-50.43,22.58-22.39.63-43.6-8.08-55.07-22.58l4.64-2.95c1.23,1.4,17.75,19.47,48.44,19.64,30.24.17,47.07-17.19,48.44-18.66Z" stroke="#000" stroke-miterlimit="10" stroke-width="3"/>
</svg>
