<svg id="fd08b839-d736-4c05-a325-fa15164a50a0" data-name="Layer 1" xmlns="http://www.w3.org/2000/svg" viewBox="0 0 368.35 440.35">
  <g>
    <path d="M0,440.35c.66-16.77,3.92-32.84,12.14-47.72,7.74-14,19.22-23.45,33.67-30.06C60.73,355.74,75.25,348,90,340.71a14.16,14.16,0,0,1,5.74-1.63,34.57,34.57,0,0,1-3.62,4c-2.88,2.34-2.08,4.73-.36,7.17,4.52,6.41,9,12.85,13.68,19.14s9.8,12.52,14.51,18.92c6.85,9.31,13.4,18.85,20.29,28.13,2.73,3.68,5,8.39,10.71,8.2a8,8,0,0,0,2.8-.68c4.1-1.78,8.14-3.72,12.26-5.43,3.75-1.56,7.11-2.38,10.82,1.13,3.49,3.32,13.06,2.42,16.76-.89,2.19-2,4.17-1.94,6.78-1.07,6.83,2.28,13.77,4.24,20.64,6.38,2.9.9,3.66-.37,4.52-3.06a32.88,32.88,0,0,1,4.89-9.08q11.93-16.53,24.2-32.83c5.08-6.77,10.46-13.32,15.56-20.08a96.26,96.26,0,0,0,6.56-9.93c1.24-2.14.89-4.22-1.42-5.85-2.53-1.79-4.84-3.88-7.24-5.84l.94-.9c13.66,6.89,27.28,13.84,41,20.63,6,3,12.27,5.49,18.3,8.44,13.68,6.68,23.12,17.55,29.48,31.13A107.6,107.6,0,0,1,368,437.4c.05,1,.22,2,.34,3H190.16c.09-2.48.2-5,.27-7.44.1-3.8-2.71-4.9-5.55-5.28s-6.51-.21-6.93,3.73c-.31,2.93.61,6,1,9Z"/>
    <path d="M287.93,16.15c4.18,13,6.3,25.29-.55,37.36-2.2,3.9-1.83,7,.14,11.05,7.05,14.45,12.14,29.74,12.39,45.87.56,36,.7,72,.18,108-.24,16.8-6.33,32.41-13.86,47.33A109.19,109.19,0,0,1,252,305.63c-4.93,3.55-10.14,6.71-15.65,10.34,1.48,1.74,2.55,3.23,3.84,4.47,8.35,8.05,16.69,16.12,25.18,24,2.31,2.15,2.89,3.52.68,6.39-9.41,12.23-18.5,24.71-27.68,37.13-2.89,3.9-5.62,7.92-8.52,11.81a47,47,0,0,1-3.45,3.76l-1.09-.24V380.89c-4.9,1.83-8.73,3.28-12.57,4.69-4.89,1.79-9.77,3.6-14.7,5.28a3.21,3.21,0,0,1-2.7-.3c-3.65-3.32-7.16-6.82-10.29-9.85,14-13.84,28.15-27.86,42.26-41.95a6,6,0,0,0,1.83-3.51,93.59,93.59,0,0,0,0-12C229,321,227.47,320,225,320.72c-8.4,2.27-16.79,4.66-25.3,6.42-4,.82-8.2.15-12.3.43-15.3,1.05-30-1.61-44.31-6.86a26.7,26.7,0,0,0-4-.74c0,5-.2,9.64.12,14.2.1,1.38,1.48,2.82,2.57,3.95,13.66,14,27.37,28,41.58,42.55-3.48,3.39-6.9,7.15-10.83,10.27-1.07.85-3.8.11-5.54-.53-6.52-2.42-12.94-5.12-19.42-7.64a30,30,0,0,0-4.24-.9v22.68l-1.12.33-42.6-57.27c7.07-6.64,14.43-13.44,21.66-20.38a121.52,121.52,0,0,0,8.61-9.12c1.41-1.66.57-3.19-1.25-4.27Q87.65,289.6,72.86,244.32a106,106,0,0,1-5.47-34.52c.38-29.11.61-58.25-.06-87.35-.39-16.88,3.19-32.69,8.87-48.23,10-27.35,29.51-46.21,53.87-61C144,4.73,159.69,3.37,175.12,1a82.09,82.09,0,0,1,33.41,1.48A143.91,143.91,0,0,1,249.74,20.4c9.33,6,20.24,6.89,31.05,5.08,2.1-.35,3.79-3.63,5.5-5.69C287,19,287.21,17.81,287.93,16.15ZM285.36,161h-.54c0-21.36.23-42.73-.11-64.09-.16-9.91-4.84-18.37-10.81-26.09-1.35-1.75-2.91-2.19-5.22-1.59-19.54,5.07-36.24-.34-50.84-13.83-5.39-5-11-9.69-16.83-14.19-7.5-5.85-15.95-9.15-25.7-8.08-5.81.64-11.65,1.07-17.42,2-22,3.56-41.58,12.22-57.73,28.11-12.16,11.95-18.1,26-17.77,43.2.41,21.33.1,42.68.1,64,0,17.37,0,34.73,0,52.1a87.74,87.74,0,0,0,.59,9.72c.75,6.54,4.64,10.41,11.19,11,11.39,1.05,22.3-1.78,33.1-4.71a264.56,264.56,0,0,1,49.88-8.88,100.93,100.93,0,0,1,30.82,2.22c12.56,3,25.24,5.45,37.79,8.45,9.14,2.18,18.27,3.93,27.7,2.9,6.62-.73,10.71-4.88,11.16-11.46.34-4.85.57-9.72.58-14.59C285.4,198.48,285.36,179.74,285.36,161Z"/>
    <path d="M217.7,391.9V416c-2.13-.78-3.82-1.42-5.53-2-5.14-1.84-10.31-3.64-15.44-5.5-2.47-.9-4.32-.2-5.89,1.83a14,14,0,0,1-2.66,2.62c-2.85,2.15-6.06,1.81-8.58-.79-4.46-4.58-6.56-4.8-12.51-2.21-5.21,2.26-10.61,4.11-16.59,6.4V392c2.69,1.08,5.26,2.15,7.85,3.16,3.82,1.49,7.63,3,11.48,4.41,3.52,1.29,6.54.31,9.32-2.11a20.22,20.22,0,0,1,4.31-2.81c1.9-1,3.37-.42,4.85,1.32,4.23,5,7.16,5.24,13.11,2.48C206.53,396,211.89,394.2,217.7,391.9Z"/>
  </g>
  <path d="M104.82,174.6a63.75,63.75,0,0,1,54.05,0l-.06,11a43.61,43.61,0,0,0-25.77-9,44.29,44.29,0,0,0-28.22,9Z"/>
  <path d="M210.82,174.19a61.42,61.42,0,0,1,53,0l-.06,11a42.16,42.16,0,0,0-25.27-9,42.78,42.78,0,0,0-27.67,9Z"/>
  <ellipse cx="184.32" cy="4.6" rx="157.5" ry="95" fill="#fff"/>
  <path d="M297.79,159.83c.71,33.9,1.08,60.79-15,90-3.44,6.26-36.85,64.66-98.5,65-54.15.31-86.86-44.43-91.5-51-20-28.3-20.8-56-22-104-.76-30.24-1.2-65.33,19-101,5.55-9.79,14.27-24.81,32-37,26.14-18,53.7-17.33,62.5-17,46.85,1.76,76.72,33.73,81.5,39C296.05,77.25,296.91,118.27,297.79,159.83Z" fill="none" stroke="#000" stroke-miterlimit="10" stroke-width="3"/>
  <path d="M228.82,255.15a55.87,55.87,0,0,1-43,22.42c-19.08.62-37.15-8-46.93-22.42l4-2.92a54.33,54.33,0,0,0,82.55,1Z" fill="#fff"/>
</svg>
