<svg id="b0040a8b-5e4a-4d0c-ac67-e8391d3d2f18" data-name="Layer 1" xmlns="http://www.w3.org/2000/svg" viewBox="0 0 368.05 450.32">
  <g>
    <path d="M.13,451.37c.66-16.74,3.92-32.79,12.14-47.64,7.74-14,19.22-23.42,33.67-30,14.92-6.82,29.44-14.54,44.15-21.83a14,14,0,0,1,5.74-1.62,36.28,36.28,0,0,1-3.62,4c-2.88,2.34-2.09,4.72-.36,7.16,4.52,6.39,9,12.82,13.67,19.11S115.33,393,120,399.41c6.85,9.3,13.4,18.82,20.29,28.09,2.73,3.67,4.95,8.37,10.7,8.18a7.83,7.83,0,0,0,2.81-.68c4.1-1.77,8.14-3.71,12.26-5.42,3.74-1.56,7.11-2.38,10.81,1.13,3.5,3.32,13.07,2.42,16.76-.88,2.19-2,4.18-1.94,6.79-1.07,6.83,2.27,13.76,4.23,20.64,6.37,2.9.9,3.66-.37,4.51-3.06a33.07,33.07,0,0,1,4.9-9.06q11.93-16.51,24.2-32.78c5.08-6.76,10.46-13.3,15.56-20.05a97.09,97.09,0,0,0,6.56-9.91c1.24-2.14.89-4.21-1.42-5.84-2.53-1.79-4.84-3.88-7.24-5.83l.93-.9c13.66,6.88,27.29,13.82,41,20.59,6,3,12.27,5.49,18.3,8.43,13.68,6.67,23.11,17.52,29.48,31.08a107.3,107.3,0,0,1,10.26,40.62c.05,1,.22,2,.34,2.95H190.29c.09-2.48.19-4.95.26-7.43.11-3.79-2.7-4.89-5.54-5.27s-6.51-.21-6.93,3.72c-.31,2.93.61,6,1,9Z"/>
    <path d="M287.88,28.19c4.12,9.2,4.65,18.52,3.27,27.85-.55,3.67-2.71,7.16-4.41,10.6-1.45,3-1.14,5.39.33,8.36,6.41,12.89,11,26.45,12.37,40.84.85,8.92,1.07,17.92,1.12,26.89.14,27,.1,53.9.05,80.85,0,19.11-5.84,36.74-14.33,53.58A108.28,108.28,0,0,1,252,317c-4.93,3.53-10.13,6.7-15.67,10.35,5.58,5.76,10.65,11.2,16,16.4,4.37,4.27,9,8.3,13.58,12.31,2,1.76,2.55,3.05.66,5.52C257,374,247.74,386.62,238.4,399.21c-2.88,3.89-5.62,7.9-8.52,11.79a44.23,44.23,0,0,1-3.46,3.67l-1.11-.31V392c-4.85,1.84-8.7,3.33-12.57,4.76-4.77,1.75-9.55,3.5-14.36,5.14-.83.28-2.21.37-2.74-.11-3.74-3.39-7.33-6.95-10.93-10.42,8.77-5.75,15-14.39,22.58-21.58,6.34-6,12.33-12.37,18.71-18.34,2.38-2.22,3.73-4.59,3.67-7.77,0-3,0-6-.32-9-.26-2.55-1.71-3.47-4.42-2.73-8.4,2.27-16.76,4.81-25.3,6.36-5.33,1-11,.09-16.42.45-13.72.91-26.67-2.37-39.48-6.68-1.26-.43-2.61-.6-4.51-1,.29,7.49-2,14.37,4.68,20.66,13.5,12.71,26.15,26.35,39.57,40-3.46,3.37-6.8,7.09-10.68,10.1-1.16.9-4,.19-5.83-.47-6.42-2.33-12.72-5-19.09-7.45a37.73,37.73,0,0,0-4.42-1.09v22.83l-1.17.22L99.64,358.69c7.4-6.81,15-13.7,22.49-20.74a91.06,91.06,0,0,0,7.77-8.42c1.46-1.79.71-3.34-1.31-4.53-29.1-17.28-48.08-42.29-57.3-74.84a93.79,93.79,0,0,1-3.73-26.5c.21-30.06.48-60.14-.09-90.2-.28-15,2.67-29.14,7.25-43.19,9.6-29.44,29.68-49.76,55.61-65.4,13.88-8.38,29.39-9.77,44.7-12.07a83.17,83.17,0,0,1,33.78,1.49A145.41,145.41,0,0,1,250,32.2c9.32,5.91,20.25,6.81,31.06,5,2-.35,3.62-3.48,5.25-5.47C287,30.88,287.24,29.69,287.88,28.19Zm-2.39,144.24h-.55c0-21.32.25-42.66-.11-64-.16-9.88-4.84-18.34-10.83-26-1.37-1.76-2.95-2.13-5.24-1.54-19.54,5-36.24-.38-50.83-13.85-5.38-5-11-9.67-16.83-14.17-7.51-5.84-16-9.1-25.71-8-5.81.64-11.65,1.06-17.42,2-21.9,3.53-41.34,12.12-57.46,27.82-12.28,12-18.33,26.13-18,43.41.42,21.8.1,43.61.1,65.41,0,16.84,0,33.68,0,50.52a87.38,87.38,0,0,0,.59,9.7c.76,6.52,4.66,10.36,11.24,10.95,11.38,1,22.29-1.8,33.1-4.72A269.45,269.45,0,0,1,177.46,241a111.47,111.47,0,0,1,32.3,2.42c9.72,2.13,19.59,3.62,29.17,6.21,9.88,2.67,19.68,5.29,30,5.33,11.1,0,15-3.38,16.14-14.48.38-3.84.4-7.72.4-11.58Q285.53,200.68,285.49,172.43Z"/>
    <path d="M150.61,427.36V403c2.74,1.12,5.32,2.19,7.92,3.21,3.81,1.49,7.62,3,11.47,4.39,3.53,1.28,6.54.25,9.32-2.15a12.22,12.22,0,0,1,4.7-2.79,5.07,5.07,0,0,1,4.08,1.19c5,5.14,7.36,5.53,13.82,2.4,3.56-1.73,7.35-3,11.07-4.39a41.47,41.47,0,0,1,4.73-1.13V427c-2.07-.77-3.76-1.41-5.46-2-5.15-1.83-10.32-3.62-15.45-5.49-2.5-.9-4.14.08-5.92,1.84a13.47,13.47,0,0,1-5.75,3.66,6.56,6.56,0,0,1-5.12-1.66c-5-4.69-6.7-5-12.84-2.35C162,423.27,156.58,425.1,150.61,427.36Z"/>
  </g>
  <ellipse cx="183.7" cy="237.62" rx="101.5" ry="84" fill="#fff"/>
  <path d="M104.14,191.2a61.42,61.42,0,0,1,53,0l-.06,11a42.25,42.25,0,0,0-25.26-9,43,43,0,0,0-27.68,9Z"/>
  <path d="M209.14,191.2a61.42,61.42,0,0,1,53,0l-.06,11a42.25,42.25,0,0,0-25.26-9,43,43,0,0,0-27.68,9Z"/>
  <path d="M226.2,258.12c-.85.69-14.13,11-40.18,11.49-17.84.31-34.74-4.12-43.88-11.49l3.7-1.5c1,.71,14.15,9.9,38.6,10,24.09.09,37.5-8.74,38.59-9.49Z" stroke="#000" stroke-miterlimit="10" stroke-width="3"/>
  <ellipse cx="190.14" cy="64.12" rx="95" ry="36.5"/>
  <path d="M144.14,95.62a80.93,80.93,0,0,0,9-79" fill="none" stroke="#fff" stroke-miterlimit="10" stroke-width="3"/>
  <path d="M169.52,108.64a93,93,0,0,0,19.76-44c3.93-25.49-4.34-45.7-8.54-54.38" fill="none" stroke="#fff" stroke-miterlimit="10" stroke-width="3"/>
  <path d="M199.34,109.61a93,93,0,0,0,19.76-44c3.93-25.48-4.34-45.7-8.55-54.38" fill="none" stroke="#fff" stroke-miterlimit="10" stroke-width="3"/>
  <path d="M226.34,117.61a93,93,0,0,0,19.76-44c3.93-25.48-4.34-45.7-8.55-54.38" fill="none" stroke="#fff" stroke-miterlimit="10" stroke-width="3"/>
  <path d="M242.6,111.38a93,93,0,0,0,27.57-39.6c8.59-24.32,4.22-45.72,1.69-55" fill="none" stroke="#fff" stroke-miterlimit="10" stroke-width="3"/>
  <path d="M104.34,109.61a93,93,0,0,0,19.76-44c3.93-25.48-4.34-45.7-8.55-54.38" fill="none" stroke="#fff" stroke-miterlimit="10" stroke-width="3"/>
</svg>
