<svg id="acd41662-e934-4725-ab5f-ad7322ae3ebb" data-name="Layer 1" xmlns="http://www.w3.org/2000/svg" viewBox="0 0 368.05 439.32">
  <g>
    <path d="M-.62,440.37C0,423.6,3.3,407.53,11.52,392.65c7.74-14,19.22-23.45,33.67-30.06,14.92-6.83,29.44-14.56,44.15-21.86a14.16,14.16,0,0,1,5.74-1.63,33.66,33.66,0,0,1-3.62,4c-2.88,2.35-2.08,4.74-.36,7.18,4.52,6.4,9,12.85,13.68,19.14s9.8,12.52,14.51,18.92c6.85,9.31,13.4,18.85,20.29,28.13,2.73,3.68,4.95,8.39,10.71,8.2a8.06,8.06,0,0,0,2.8-.69c4.1-1.77,8.14-3.71,12.26-5.43,3.75-1.55,7.11-2.37,10.82,1.14,3.49,3.32,13.06,2.42,16.76-.89,2.19-2,4.17-1.94,6.78-1.07,6.83,2.27,13.77,4.24,20.64,6.38,2.9.9,3.66-.37,4.52-3.06a32.88,32.88,0,0,1,4.89-9.08q11.93-16.54,24.2-32.83c5.08-6.78,10.46-13.32,15.56-20.08a96.4,96.4,0,0,0,6.56-9.94c1.24-2.14.89-4.21-1.42-5.84-2.53-1.79-4.84-3.88-7.24-5.84l.94-.9c13.66,6.89,27.28,13.84,41,20.63,6,3,12.27,5.49,18.3,8.44,13.68,6.68,23.12,17.55,29.48,31.13a107.6,107.6,0,0,1,10.26,40.69c.05,1,.22,2,.34,2.95H189.54c.09-2.48.2-5,.27-7.44.1-3.8-2.71-4.9-5.55-5.28s-6.51-.21-6.93,3.73c-.31,2.93.61,6,1,9Z"/>
    <path d="M287.31,16.17c4.18,13,6.3,25.29-.55,37.36-2.2,3.9-1.83,7,.14,11C294,79,299,94.31,299.29,110.45c.56,36,.7,72,.18,108-.24,16.8-6.33,32.41-13.86,47.33a109.27,109.27,0,0,1-34.23,39.91c-4.93,3.54-10.14,6.71-15.65,10.34,1.48,1.74,2.55,3.23,3.84,4.47,8.35,8.05,16.69,16.12,25.18,24,2.31,2.15,2.89,3.52.68,6.39C256,363.1,246.93,375.58,237.75,388c-2.89,3.9-5.62,7.92-8.52,11.81a47,47,0,0,1-3.45,3.76l-1.09-.24V380.91c-4.9,1.83-8.73,3.28-12.57,4.69-4.89,1.79-9.77,3.6-14.7,5.27a3.17,3.17,0,0,1-2.7-.29c-3.65-3.33-7.16-6.82-10.29-9.85,14-13.84,28.15-27.86,42.26-42a6,6,0,0,0,1.83-3.51,93.59,93.59,0,0,0,0-12c-.16-2.33-1.71-3.25-4.23-2.57-8.4,2.27-16.79,4.66-25.3,6.42-4,.82-8.2.15-12.3.43-15.3,1.05-30-1.61-44.31-6.86a26.7,26.7,0,0,0-4-.74c0,5-.2,9.64.12,14.2.1,1.38,1.48,2.82,2.57,3.95,13.66,14,27.37,28,41.58,42.55-3.48,3.38-6.9,7.15-10.84,10.27-1.06.84-3.79.11-5.53-.54-6.52-2.41-12.94-5.11-19.42-7.63a30,30,0,0,0-4.24-.9v22.68l-1.12.33L99,347.63c7.07-6.64,14.43-13.45,21.66-20.38a121.52,121.52,0,0,0,8.61-9.12c1.41-1.67.57-3.19-1.25-4.27Q87,289.62,72.24,244.33a105.9,105.9,0,0,1-5.47-34.51c.38-29.12.61-58.25-.06-87.35-.4-16.88,3.19-32.69,8.87-48.23,10-27.35,29.51-46.21,53.87-61,14-8.48,29.62-9.84,45.05-12.17a82.09,82.09,0,0,1,33.41,1.48,143.91,143.91,0,0,1,41.21,17.88c9.33,6,20.24,6.88,31.05,5.08,2.1-.35,3.79-3.63,5.5-5.69C286.35,19,286.59,17.83,287.31,16.17ZM284.74,161h-.54c0-21.36.23-42.73-.11-64.09-.16-9.91-4.84-18.37-10.81-26.09-1.35-1.75-2.91-2.19-5.22-1.59-19.54,5.07-36.24-.34-50.84-13.83-5.39-5-11-9.69-16.83-14.2-7.5-5.84-15.95-9.14-25.7-8.07-5.81.64-11.65,1.06-17.42,2-22,3.56-41.58,12.21-57.73,28.11-12.16,11.95-18.1,26-17.77,43.2.41,21.33.1,42.68.1,64,0,17.36,0,34.73,0,52.1a87.74,87.74,0,0,0,.59,9.72c.75,6.54,4.64,10.41,11.19,11,11.39,1,22.3-1.78,33.1-4.71a263.76,263.76,0,0,1,49.88-8.88,100.93,100.93,0,0,1,30.82,2.22c12.56,3,25.24,5.45,37.79,8.45,9.14,2.18,18.27,3.93,27.7,2.9,6.62-.73,10.71-4.88,11.16-11.46.34-4.85.57-9.72.58-14.59C284.78,198.5,284.74,179.76,284.74,161Z"/>
    <path d="M217.08,391.92V416c-2.13-.78-3.82-1.42-5.53-2-5.14-1.83-10.31-3.63-15.44-5.49-2.47-.9-4.32-.2-5.89,1.83a14,14,0,0,1-2.66,2.62c-2.85,2.14-6.06,1.81-8.58-.79-4.46-4.58-6.56-4.8-12.51-2.21-5.21,2.26-10.61,4.11-16.59,6.4V392c2.69,1.09,5.26,2.16,7.85,3.17,3.82,1.49,7.63,3,11.47,4.41,3.53,1.29,6.55.31,9.33-2.11a20.22,20.22,0,0,1,4.31-2.81c1.9-1,3.37-.42,4.85,1.31,4.23,5,7.16,5.25,13.11,2.49C205.91,396.05,211.27,394.21,217.08,391.92Z"/>
  </g>
  <ellipse cx="192.7" cy="41.62" rx="157.5" ry="95" fill="#fff"/>
  <path d="M296.7,166.12c.71,33.9,1.08,60.79-15,90-3.45,6.26-36.85,64.66-98.5,65-54.15.3-86.86-44.43-91.5-51-20-28.3-20.8-56-22-104-.76-30.24-1.21-65.33,19-101,5.54-9.79,14.27-24.81,32-37,26.14-18,53.7-17.33,62.5-17,46.85,1.76,76.72,33.73,81.5,39C295,83.54,295.82,124.56,296.7,166.12Z" fill="none" stroke="#000" stroke-miterlimit="10" stroke-width="3"/>
  <path d="M281.93,226.62c10.35,24.07-39.34,89.29-98.79,89s-108.54-66.06-97.94-90c6.37-14.39,36.89-14.26,97.94-14C244.81,211.88,275.65,212,281.93,226.62Z" fill="#fff"/>
  <path d="M227.16,260.81c-.95,1-15.63,16.07-44.44,16.75-19.73.46-38.42-6-48.52-16.75l4.09-2.19c1.08,1,15.64,14.44,42.68,14.57,26.65.12,41.47-12.75,42.68-13.84Z" stroke="#000" stroke-miterlimit="10" stroke-width="3"/>
  <g>
    <path d="M105.2,174.24a61.42,61.42,0,0,1,53,0l-.06,11a42.16,42.16,0,0,0-25.27-9,42.78,42.78,0,0,0-27.67,9Z"/>
    <path d="M211.2,174.24a61.42,61.42,0,0,1,53,0l-.06,11a42.16,42.16,0,0,0-25.27-9,42.78,42.78,0,0,0-27.67,9Z"/>
    <ellipse cx="131.2" cy="183.12" rx="44.5" ry="38" fill="none" stroke="#000" stroke-miterlimit="10" stroke-width="7"/>
    <ellipse cx="237.2" cy="185.12" rx="44.5" ry="38" fill="none" stroke="#000" stroke-miterlimit="10" stroke-width="7"/>
  </g>
</svg>
