<svg id="fe8f9570-b560-447f-aa58-41ae04f1930d" data-name="e7b36eed-73f8-4f0e-a760-6c23cafae690" xmlns="http://www.w3.org/2000/svg" viewBox="0 0 370 441">
  <g>
    <path d="M272,339.46c6.27,3,12.54,6,18.8,9.07,12,5.83,23.87,11.78,35.87,17.52a62.36,62.36,0,0,1,28.89,28,102,102,0,0,1,11.61,39.46c.45,5.5-.16,6.21-5.54,6.21q-82.22,0-164.44.08c-3.71,0-5.44-1.14-6.05-4.85-.32-2-1.34-4.51-2.86-5.4a8.92,8.92,0,0,0-6.91-.81c-1.61.64-2.62,3.41-3.34,5.44-.51,1.43-.1,3.19-.1,5.27H1.71c0-3.29-.54-6.95.09-10.4,2.52-13.61,5.76-27,13.55-38.82,7.64-11.58,17.89-20,30.28-26.08Q66.26,354.09,86.85,344c2.06-1,4.18-1.91,6.25-2.85.28.57.6,1,.53,1.09-4,4.33-2.59,8,.6,12.28,15.71,21.1,31.17,42.4,46.72,63.62.88,1.21,1.76,2.43,2.74,3.57,3.41,4,6.12,4.84,11,3,3.9-1.42,7.73-3.09,11.5-4.84s7.22-1.76,10.79.7a12.78,12.78,0,0,0,14.61.47c4.43-2.64,8.76-2.47,13.4-.87,4.87,1.68,9.84,3.07,14.76,4.6,2.53.78,4.54.34,5.89-2.18,10.59-19.81,26-36.23,38.79-54.44,3.55-5,7.31-9.92,10.76-15,3.57-5.29,3.36-6-1.45-10.42l-2.54-2.33Z" fill="#fd695e"/>
    <path d="M143.51,382.41v20.84l-1.37.57a49.45,49.45,0,0,1-3.36-3.72q-17.48-23.44-34.87-46.94c-3.17-4.28-3.16-4.45.75-8.27,7.38-7.21,14.85-14.35,22.27-21.53a43.6,43.6,0,0,0,3.06-3.29c1.65-1.9,1.41-3.64-.62-5.07-1.63-1.15-3.34-2.2-5-3.29-31.38-20.56-49.44-49.62-55-86.56a93.54,93.54,0,0,1-.69-14q-.09-46.49,0-93c0-3,.37-6,.43-9,.06-3.39.9-6,4.36-5.43,5-12.26,9.18-24.43,14.84-35.85,12.27-24.78,31.1-42.8,58-50.89,33.48-10,65.42-5.38,94.84,13.24,29.22,18.5,46.79,45.26,52.89,79.44.43,2.4,0,5.54,4,5.92.65.06,1.47,2.43,1.55,3.78.28,4.31.32,8.65.32,13,0,28.32.67,56.66-.37,84.95-1.4,38.2-18.8,68.35-49.59,90.82-4.13,3-8.5,5.72-13.3,8.94a49.57,49.57,0,0,0,3.89,5c7.65,7.43,15.42,14.72,23.06,22.15,4.35,4.22,4.36,4.92.9,9.61q-15.58,21.1-31.23,42.16c-1.65,2.23-3.58,4.25-5.39,6.37l-1.3-.31c-.3-6.31-.6-12.62-.93-19.67-2.33.56-4.06.84-5.69,1.41-5.35,1.84-10.74,3.6-16,5.75-5.6,2.32-10,1.15-13.66-3.56-.91-1.18-2-2.26-3.4-3.9a53.63,53.63,0,0,1,4.34-5.71q16.57-16.65,33.33-33.12c4.88-4.76,6.08-10.55,5.41-16.92-.44-4.26-2.2-5.34-6.5-4.34-7.6,1.75-15.12,4.14-22.81,5.24-18.2,2.59-36.21,1.46-53.77-4.45-7.32-2.46-7.88-1.93-8.06,5.66a17.49,17.49,0,0,0,5.53,13.39c11.81,12,23.5,24.08,35.21,36.16,3.42,3.54,3.41,3.72,0,7.17-8.29,8.32-7,7.76-17.07,3.94-4.2-1.59-8.35-3.33-12.56-4.89A58.19,58.19,0,0,0,143.51,382.41ZM284.81,178l1.22-.23v-4.9c0-15.47,0-30.94-.1-46.41,0-3.3.78-6,4.12-7.19,3.07-1.1,3.41-3.47,2.93-6.07-2.44-13.13-5.64-26-12.21-37.82C262.08,41.86,234,21.47,196,15.24c-24.66-4.05-48.13-.86-69.57,12.83-28,17.87-42.05,45-50.05,76.05a5.25,5.25,0,0,0,1.92,4.53c3.77,2.18,4.61,5.41,4.6,9.27-.05,35.33,0,70.65-.17,106a69.71,69.71,0,0,0,9.06,34.84c12.42,22.3,30.59,38.35,53.3,49.52,20.78,10.21,42.29,12.34,64.52,5.56,28.9-8.81,50.3-27.23,66.59-52.15A51.82,51.82,0,0,0,284.79,238c.85-9.26,1-18.6,1.37-27.9.17-4.71,0-9.42,0-14.13l-1.43-.26c-1,1.85-2,3.67-2.84,5.56-14.52,31-61.17,34.66-82.32,8.82-12.16-14.87-11.48-35.36,2-49.06s30.14-17.49,48.69-13.49c15.37,3.32,26.5,11.93,32.59,26.67C283.43,175.49,284.16,176.74,284.81,178Zm-47,43.79c9.51-.26,18.24-2.53,26.09-7.77,17.38-11.6,21-33.19,8-47.93-16.43-18.61-47.67-19.69-65.42-2.27-13,12.79-13.25,32.07-.45,45.08,8.69,8.95,19.67,12.57,31.74,12.92Z" fill="#fd695e"/>
    <path d="M217,393.46a49.21,49.21,0,0,1,.71,5.26q.12,6,0,12c-.08,4.67-.87,5.21-5.46,3.7-4.1-1.36-8.23-2.69-12.22-4.35s-6.95-1-10.09,1.73c-5,4.3-5.24,4.28-10.58.08-3.66-2.87-7.29-3.47-11.61-1.57-4.84,2.14-9.86,3.89-15.76,6.19-1.24-7.72-.84-14.75-.25-22.7,5.58,2.09,10.46,3.61,15.07,5.71,4.91,2.25,9.15,2,13.52-1.3,4.64-3.49,5.24-3.35,9.77.58,3.33,2.89,6.87,2.87,10.71,1.27Z" fill="#fd695e"/>
    <path d="M132.9,225.27c-15.34.61-27.22-4.33-36.79-14.29-16.53-17.21-14.42-42.21,4.51-56.89s48.28-13.58,66,2.28C184.1,172,184,197.49,166.48,213,156.52,221.89,144.51,225,132.9,225.27Zm-1.24-5.56c11.71-.13,21.68-3.13,30.17-10.4,16.54-14.18,16-37.14-1.19-50.45-16.93-13.1-41.74-12.51-58.18,1.39-14.18,12-15.74,31.25-3.48,45.24,8.8,10,20.38,13.85,32.68,14.22Z" fill="#fd695e"/>
    <path d="M183.81,231.92c14.62-.26,27.72,5,40.5,11.23a11.86,11.86,0,0,1,6.56,8.38c.85,3.91-1.31,5.69-5.13,4.38a2.11,2.11,0,0,1-.89-.4c-7.72-7.89-18.15-8.41-28-10.33-19-3.68-36.68-.68-52.89,10.13a10.88,10.88,0,0,1-2.6,1.45c-2.9.92-4.71-.47-4.25-3.47.68-4.54,2.9-8.33,7.31-10,9.93-3.81,19.92-7.51,30-10.82C177.28,231.51,180.66,232.06,183.81,231.92Z" fill="#fd695e"/>
    <path d="M144.57,273c3.43-3.13,6-1.9,8.72-.28,12,7,24.78,10.38,38.72,8.39,8.34-1.19,16-4.24,23.4-8.19,2.21-1.18,4.58-3.07,7.68,0-11.91,11.28-26.38,14.43-41.81,14C167.66,286.43,154.83,283.25,144.57,273Z" fill="#fd695e"/>
    <path d="M239.12,169.08c7.06,1.66,13.87,3.06,20.53,5a8.71,8.71,0,0,1,4.56,4.12c.7,1.31,0,3.39-.12,5.12a21.24,21.24,0,0,1-4.57-.41c-4.89-1.54-9.6-3.8-14.58-4.87-9.13-1.94-17.84.22-26.13,4.19a25.22,25.22,0,0,1-3.57,1.77c-2,.59-3.16-.14-3.29-2.4a7.12,7.12,0,0,1,5.28-7.51C224.42,172.17,231.73,170.74,239.12,169.08Z" fill="#fd695e"/>
    <path d="M158.19,184.22a29,29,0,0,1-4.89-1.56c-13.88-7.2-27.66-6.95-41.49.16-1.41.72-3.29.54-4.94.78,0-1.74-.48-3.82.28-5.15a10.19,10.19,0,0,1,4.7-4.52c13.89-5.07,27.9-5.28,41.83-.08C158.52,175.66,159.6,178.14,158.19,184.22Z" fill="#fd695e"/>
  </g>
</svg>
